<svg xmlns="http://www.w3.org/2000/svg" viewBox="0 0 400 72.07">
    <g fill-rule="evenodd">
        <path d="M270.067 24.827c-2.589.398-2.476-.098-2.521 11.09-.043 10.633-.039 10.678 1.153 11.29 1.745.896 16.004.924 17.877.035 1.216-.577 1.174-.184 1.174-10.992 0-11.024.069-10.467-1.387-11.14-.83-.383-14.14-.615-16.296-.283m55.096-.004c-2.442.332-2.731 1.133-2.637 7.319.094 6.15-.116 6.015 9.426 6.021 6.357.004 5.715-.328 5.715 2.956 0 3.353.551 3.048-5.498 3.048-5.878 0-5.502.126-5.502-1.846V41h-4v2.378c0 4.46.157 4.527 10.442 4.42 9.036-.094 8.558.273 8.558-6.558 0-7.057.402-6.74-8.542-6.74-3.689 0-5.931-.063-6.136-.173-.393-.21-.503-5.413-.122-5.794.3-.3 10.189-.284 10.438.017.099.118.202.812.229 1.541l.049 1.326h4v-2.334c-.001-4.416.186-4.324-8.833-4.359-3.667-.015-7.081.03-7.587.099M217 36.667v11.5h3.995l.044-4.792.044-4.792 6.042-.043 6.042-.044v9.671h4v-23h-3.995l-.044 4.791-.045 4.792h-12l-.044-4.792-.044-4.791H217v11.5m153.5-9.672v1.832l3.708.045 3.709.045.043 9.708.043 9.708h3.994l.043-9.708.043-9.708 3.714-.045 3.714-.045-.047-1.789-.047-1.788-9.459-.043-9.458-.043v1.831m-87 1.501c.216.137.25 1.184.25 7.754 0 6.57-.034 7.617-.25 7.754-.391.246-11.384.212-11.633-.037-.296-.296-.288-15.404.008-15.523.392-.158 11.37-.109 11.625.052" fill="#f6f6f6"/>
        <path d="M205.999 20.208l-.004 16.209-.003 16.166 95.254.042 95.254.042v-32.5h-95.25c-52.388 0-95.25.018-95.251.041M286.414 25c1.575.79 1.495.243 1.552 10.75.071 13.379 1.166 12.096-10.319 12.086-8.767-.009-8.941-.03-9.749-1.196l-.481-.695v-9.681c0-9.437.008-9.695.339-10.258.828-1.41 1.357-1.483 10.494-1.45l7.333.027.831.417m53.768-.063c1.357.628 1.568 1.186 1.568 4.146v2.5l-2.121.047c-2.447.054-2.261.203-2.337-1.88l-.042-1.167h-10.333v5.667l6.333.083c9.118.12 8.649-.282 8.553 7.334-.082 6.583.71 6.083-9.636 6.083-10 0-9.667.156-9.667-4.535v-2.382h4.333v1.384c0 1.915-.387 1.783 5.252 1.783 6.008 0 5.437.318 5.378-3.001l-.046-2.582-6.167-.095c-9.208-.141-8.737.229-8.755-6.867-.02-7.35-.628-6.941 10.255-6.898 6.415.025 6.696.04 7.432.38M221.19 29.875l-.061 4.792H233V25h4.333v23.333H233v-9.75l-5.875.038-5.875.037-.034 4.796-.034 4.796-2.174.047-2.175.046V24.99l2.209.047 2.208.046-.06 4.792m168.44-2.833l-.047 1.875-3.633.083-3.634.083-.057 9.667-.057 9.667-2.185.046-2.184.047V29h-7.5v-3.833h19.345l-.048 1.875M271.84 28.82c-.369.69-.225 14.807.153 15.01.214.114 2.24.159 5.875.131l5.549-.044V28.583l-5.702-.044c-5.503-.042-5.707-.032-5.875.281" fill="#454545"/>
        <path d="M66.123 3.726c-1.322.753-1.201-1.732-1.252 25.649l-.045 24.458h-.589c-.424 0-.737-.139-1.121-.499-.293-.274-.589-.499-.658-.5-.068 0-.125-.087-.125-.193 0-.232-.83-2.023-.993-2.141-.063-.046-.259-.444-.436-.884-.176-.44-.433-.928-.571-1.083-.137-.156-.437-.696-.666-1.2-.229-.504-.498-.991-.599-1.083-.1-.092-.353-.579-.563-1.083-.209-.504-.438-.955-.51-1-.071-.046-.319-.513-.551-1.037-.231-.524-.502-1.049-.6-1.166-.099-.118-.641-1.114-1.204-2.214a225.38 225.38 0 00-1.653-3.167 61.104 61.104 0 01-1.064-2.077c-.24-.501-.496-.951-.569-1-.073-.049-.336-.537-.584-1.084-.248-.547-.504-1.035-.569-1.083-.065-.049-.343-.577-.618-1.172-.275-.596-.546-1.121-.602-1.167-.057-.046-.313-.533-.57-1.083-.257-.55-.51-1.038-.564-1.084-.053-.046-.547-.983-1.097-2.083-.55-1.1-1.045-2.038-1.1-2.083-.092-.076-.637-1.122-1.782-3.417-.228-.458-.465-.871-.525-.917-.06-.046-.32-.533-.577-1.083-.257-.55-.516-1.038-.577-1.083-.06-.046-.292-.496-.515-1-.224-.505-.49-.992-.593-1.084-.102-.091-.367-.607-.589-1.145-.222-.538-.498-1.015-.614-1.059a.367.367 0 01-.211-.32c0-.257-.637-1.588-.826-1.726-.063-.046-.328-.552-.59-1.125-.262-.573-.538-1.041-.614-1.041-.075 0-.137-.083-.137-.184 0-.322-.789-1.769-1.24-2.275a20.397 20.397 0 01-.639-.751c-.607-.779-.845-.79-16.635-.79-16.369 0-15.446-.061-16.137 1.057l-.349.565v63.378h16.833V44.283c0-26.28-.041-25.084.881-25.468 1.243-.518 2.547.028 3.105 1.299.221.504.484 1.004.583 1.11.1.106.353.53.562.943.209.412.711 1.35 1.115 2.083.403.733.92 1.701 1.149 2.15.229.449.478.861.554.916.077.056.355.551.618 1.101.264.55.525 1.037.581 1.083.056.046.348.571.648 1.167.3.595.802 1.533 1.116 2.083.313.55.801 1.485 1.084 2.077.284.592.574 1.117.645 1.167.143.099 1.244 2.045 1.748 3.089.177.367.368.704.425.75.057.046.321.549.588 1.118.267.569.586 1.073.709 1.12a.385.385 0 01.223.335c0 .138.168.555.375.927l.996 1.797c.341.616.797 1.457 1.013 1.87.841 1.605 1.668 3.087 1.766 3.167.057.045.29.49.518.987.228.498.493.985.588 1.084.095.098.383.591.639 1.095.257.504.759 1.442 1.116 2.084.357.641.856 1.579 1.11 2.083.254.504.505.954.558 1 .113.098 1.187 2.053 1.785 3.25.229.458.462.871.518.917.055.045.32.496.587 1 1.255 2.369 1.691 3.114 2.047 3.498.211.228.384.47.384.537 0 .067.414.311.921.543l.922.422h14.565c12.713 0 14.625-.033 15.036-.254.26-.139.679-.325.931-.412l.458-.159V44.515c0-23.265.018-24.044.552-24.384.675-.429 34.129-.085 34.693.357.094.074.567.264 1.051.421.81.265 1.997 1.234 2.849 2.327.296.38.838 2.422.955 3.597.051.504.161.988.246 1.075.217.223.204 15.208-.013 15.342-.091.057-.169.38-.172.718-.008.824-.744 3.587-.976 3.665a.289.289 0 00-.185.256c0 .107-.188.412-.417.679-.229.266-.416.547-.416.625 0 .077-.104.14-.23.14s-.33.121-.453.269c-1.164 1.403-2.55 1.532-16.727 1.555-12.385.019-13.303.059-12.54.544.123.078.131.128.021.13-.099.001-.356.565-.571 1.252-.216.688-.462 1.25-.548 1.25-.085 0-.111.113-.059.25.053.138.024.25-.065.25s-.162.117-.162.26c0 .154-.078.212-.192.141-.118-.073-.147-.046-.076.07.18.29-.249 1.529-.528 1.529-.198 0-.205.047-.037.25.126.152.139.25.034.25-.096 0-.224.226-.284.502-.061.276-.161.47-.222.433-.061-.038-.12.164-.131.449-.011.285-.1.545-.199.578-.099.033-.138.168-.087.299.059.155-.018.24-.218.242-.25.002-.264.031-.07.154.186.118.195.204.043.388-.108.13-.147.285-.087.346.061.06.034.109-.058.109-.093 0-.304.45-.471 1-.167.55-.366 1-.443 1-.077 0-.128.057-.113.125.014.069-.061.336-.167.595-.107.258-.194.539-.194.625 0 .085-.075.155-.166.155-.092 0-.158.057-.147.125.073.463-.043.881-.215.774-.13-.08-.16-.03-.091.152.058.15.028.319-.066.378-.094.058-.133.204-.087.324.047.121-.023.261-.155.312-.132.05-.239.244-.239.43s-.15.489-.334.672c-.183.183-.333.396-.333.473 0 .311 33.757.497 36.5.202 2.303-.248 4.167-.552 4.167-.678 0-.069.206-.165.458-.214 1.274-.244 2.736-.667 2.919-.843.113-.11.641-.345 1.173-.524.532-.178 1.095-.439 1.251-.579.156-.139.696-.462 1.2-.716 1.936-.978 5.222-4.035 5.702-5.304.065-.174.184-.317.264-.317.079 0 .363-.431.63-.958.267-.527.54-.999.605-1.048.066-.049.309-.593.54-1.208.232-.616.491-1.25.576-1.411.085-.16.316-.967.513-1.792.431-1.805.587-2.43.85-3.416.281-1.051.418-22.06.16-24.5-.262-2.472-.344-3.038-.494-3.417-.073-.183-.306-1.046-.517-1.917-.365-1.498-1.368-4.141-1.644-4.329-.07-.048-.272-.451-.449-.896-.176-.444-.488-.969-.693-1.166-.204-.197-.373-.425-.375-.507-.009-.472-3.79-4.268-4.252-4.268a.35.35 0 01-.297-.214c-.045-.118-.447-.398-.893-.623-.446-.225-.851-.463-.9-.529-.049-.067-.536-.316-1.083-.555-.547-.239-1.294-.573-1.661-.741-.367-.169-1.229-.445-1.917-.613-.687-.169-1.287-.356-1.333-.416-.125-.166-3.059-.647-4.631-.76-.759-.055-1.419-.162-1.467-.239-.047-.077-12.026-.133-26.619-.125l-26.533.016-.627.358m83.143-.253c-.048.079-1.196.186-2.552.239-2.339.091-5.24.477-5.964.794-.183.08-.646.234-1.028.342-.721.204-.802.504-.249.918.135.101.191.27.126.375-.068.11-.019.192.115.192.128 0 .375.263.548.584.172.321.367.583.431.583.065 0 .168.158.229.352.062.193.252.512.422.708.171.196.307.423.302.505-.004.081.064.194.152.25.088.056.329.477.535.935.207.458.429.871.493.917.065.046.324.683.577 1.416.252.734.53 1.468.617 1.632.087.164.117.364.068.444-.05.08-.015.171.078.202.207.069.678 2.25.555 2.572-.05.128.001.234.112.234.112 0 .161.107.111.239-.051.131-.002.272.107.312.152.056.15.126-.009.295-.243.257-.281.551-.054.411.086-.053.208-.011.272.092.064.103.018.249-.103.323-.179.111-.175.189.02.425.185.224.192.306.031.36-.295.1-.259.709.042.709.139 0 .25.148.25.334 0 .353.164.426.425.19.087-.079.571-.276 1.075-.437.504-.162 1.067-.378 1.25-.482.24-.135 5.185-.201 17.711-.234l17.377-.046.164.432c.091.237.165 1.552.165 2.921V26h18V15.501c0-10.318-.006-10.502-.334-10.706-.183-.115-.333-.294-.333-.399 0-.264-.635-.654-1.333-.818-.78-.184-50.288-.286-50.401-.105m34.03 45.402l-.046 2.875-16.829.042c-11.313.029-17.103-.015-17.666-.133a44.641 44.641 0 00-1.091-.217 1.38 1.38 0 01-.417-.142c-.334-.207-2.143-.793-2.217-.719-.042.042-.144.847-.226 1.789-.083.943-.292 2.163-.466 2.713-.175.55-.433 1.471-.575 2.046-.142.574-.417 1.395-.612 1.823a21.334 21.334 0 00-.593 1.454c-.131.373-.408.94-.616 1.261-.208.32-.477.829-.599 1.129-.121.3-.308.6-.415.666-.107.067-.409.496-.672.955-.262.458-.522.87-.578.916-1.149.954-1.196 1.59-.136 1.841.481.114.912.26.958.323.167.231 3.809.701 6.125.791 1.306.05 2.375.156 2.375.235 0 .21 49.954.187 50.083-.023.057-.092.253-.167.435-.167.435 0 1.315-.459 1.315-.686 0-.098.148-.366.329-.595.319-.406.329-.726.335-10.735L201.505 46h-18.164l-.045 2.875" fill="#dc7b04"/>
        <path d="M64.748 29.75c0 13.017.02 18.317.044 11.779.024-6.539.024-17.189 0-23.667-.025-6.478-.044-1.129-.044 11.888m209.46-5.125c1.902.027 5.015.027 6.917 0 1.902-.027.346-.049-3.458-.049-3.805 0-5.361.022-3.459.049m54.834 0c1.718.027 4.531.027 6.25 0 1.718-.027.312-.049-3.125-.049-3.438 0-4.844.022-3.125.049m-112.168 12l-.041 11.708h2.157c1.186 0 2.192-.056 2.235-.125.042-.068-.89-.102-2.073-.074l-2.15.051-.044-11.634-.044-11.634-.04 11.708m1.34-11.502c.531.034 1.356.033 1.834 0 .478-.034.044-.061-.965-.061-1.008.001-1.399.028-.869.061m2.952 2.26l.083 2.367.047-2.237c.026-1.23-.011-2.295-.083-2.367-.071-.072-.092.935-.047 2.237m13.126-2.26c.481.034 1.268.034 1.75 0 .481-.034.087-.061-.875-.061-.963 0-1.357.027-.875.061m136.077 1.919L370.333 29h7.5v19.51l2.209-.047 2.208-.046.012-1.334.012-1.333-.061 1.292-.06 1.291h-4.15l-.043-9.708-.043-9.708-3.703-.045-3.703-.045-.053-1.872-.053-1.872-.036 1.959m19.13-.008c-.045 1.073-.023 1.891.049 1.819.072-.072.109-.95.082-1.951l-.048-1.819-.083 1.951m-48.243-1.063c.062.122.174.422.248.667.107.357.137.378.148.102.008-.189-.103-.489-.248-.666-.144-.178-.211-.224-.148-.103m-73.845 10.196c0 5.087.021 7.168.047 4.625.026-2.544.026-6.707 0-9.25-.026-2.544-.047-.463-.047 4.625m20.5 0c0 5.087.021 7.168.047 4.625.026-2.544.026-6.707 0-9.25-.026-2.544-.047-.463-.047 4.625m53.792-6.88l-.036 2.203-2.125.052-2.125.052 2.13.036c2.518.043 2.314.268 2.244-2.473l-.052-2.074-.036 2.204m-66.828-.829c1.535.028 4.048.028 5.583 0 1.536-.027.279-.05-2.791-.05-3.071 0-4.327.023-2.792.05m54.76 0c1.404.028 3.654.028 5 0 1.347-.028.198-.051-2.552-.051s-3.851.023-2.448.051m-46.218 7.792c0 4.245.056 7.683.125 7.641.068-.043.125-3.481.125-7.641s-.057-7.598-.125-7.641c-.069-.042-.125 3.396-.125 7.641m53.915-6.284l.082 1.451.05-1.318c.028-.724-.009-1.377-.082-1.451-.072-.073-.095.52-.05 1.318m-10.598 1.451c0 1.466.026 2.044.057 1.283.031-.76.031-1.96-.001-2.666-.031-.706-.056-.084-.056 1.383m55.541-2.459c-.042.069.985.106 2.282.082 4.295-.078 4.738-.14 1.245-.174-1.897-.018-3.484.024-3.527.092m-.036 4.459c0 2.291.023 3.252.052 2.134a99.745 99.745 0 000-4.166c-.028-1.174-.052-.26-.052 2.032m-43.945 1.034c.207.04.507.039.666-.003.16-.042-.01-.074-.377-.073-.366.002-.497.036-.289.076m3.008 1.299c.084.183.195.446.246.583.08.216.094.215.106-.009.007-.143-.104-.406-.247-.584-.255-.318-.256-.318-.105.01m.438 5.333c0 2.475.023 3.511.051 2.302a116.38 116.38 0 000-4.5c-.028-1.266-.051-.277-.051 2.198m-16.613-2.965c.207.04.507.038.667-.003.159-.042-.011-.075-.377-.073-.367.002-.497.036-.29.076m2.956.167c5.049.118 9.379.121 9.308.007-.042-.069-2.604-.109-5.693-.089-3.088.02-4.715.057-3.615.082m-103.791.34a204.1 204.1 0 005.75 0c1.581-.028.287-.05-2.875-.05-3.163 0-4.457.022-2.875.05m98.245 4.667l.036 2.458.052-2.375.051-2.375H326.653l.056 1.292.057 1.291.034-1.375.033-1.375H322.5l.037 2.459m-47.579.833c1.49.027 3.927.027 5.417 0 1.49-.028.271-.051-2.708-.051s-4.198.023-2.709.051m54.834 0c1.306.028 3.443.028 4.75 0 1.306-.029.237-.052-2.375-.052-2.613 0-3.682.023-2.375.052m-62.279 1.718c-.007.143.104.406.246.583.255.319.257.319.106-.009a10.619 10.619 0 01-.246-.584c-.08-.216-.094-.214-.106.01m55.646 1.064c.291.351 1.172.817 1.301.689.053-.053.019-.096-.076-.096-.094 0-.461-.197-.815-.437-.354-.24-.538-.31-.41-.156m17.914-.056c-.063.101-.424.324-.802.496-.378.172-.59.314-.471.316.306.005 1.1-.425 1.358-.735.119-.144.174-.261.122-.261-.051 0-.145.082-.207.184m-54.323.327c-.275.176-.415.321-.31.321.104.001.367-.147.583-.327.496-.413.377-.41-.273.006m-52.708 1.112a26.38 26.38 0 002.25 0c.618-.032.112-.058-1.125-.058-1.238 0-1.744.026-1.125.058" fill="#747474"/>
        <path d="M139.013 5.343c-.018.361.43.937.598.768.076-.076.02-.226-.126-.333a1.218 1.218 0 01-.361-.445c-.085-.216-.099-.215-.111.01m1.191 1.833c.288.463.585.88.66.926.219.136.156-.225-.082-.465-.119-.121-.361-.464-.536-.762-.175-.298-.374-.542-.442-.542s.112.379.4.843m1.368 2.073c.323.773.364.823.496.609.056-.091-.008-.274-.142-.408-.134-.134-.208-.279-.164-.323.044-.044-.042-.181-.191-.304-.249-.207-.249-.173.001.426m1.095 2.065c0 .287.44 1.19.534 1.096.131-.131-.223-1.243-.396-1.243-.076 0-.138.066-.138.147m1.106 2.757c.071.54.172.706.334.544.059-.059.03-.203-.065-.319a1.703 1.703 0 01-.253-.463c-.043-.137-.051-.03-.016.238m.331 1.221c.126.528.193.633.321.505.136-.136-.104-.964-.28-.964-.083 0-.102.207-.041.459m1.063 5.875c0 .183.075.333.166.333.092 0 .167-.15.167-.333 0-.184-.075-.334-.167-.334-.091 0-.166.15-.166.334m75.796 8.63c.026 2.629.101 4.834.167 4.9.066.066.099-2.031.073-4.66-.026-2.629-.101-4.835-.166-4.901-.066-.066-.099 2.031-.074 4.661m12.111.12c0 2.658.023 3.722.051 2.364.028-1.357.028-3.532 0-4.833-.029-1.301-.052-.19-.051 2.469m4.172 6.75c0 6.371.02 8.977.046 5.791.025-3.185.025-8.398 0-11.583-.026-3.185-.046-.579-.046 5.792m144.831-7.625c-.044.114-.061 4.521-.037 9.791l.043 9.584.084-9.792c.046-5.385.062-9.792.036-9.792-.026 0-.083.094-.126.209m-98.334 7.208c0 4.033.022 5.659.049 3.614.026-2.046.026-5.346-.001-7.334-.026-1.987-.048-.313-.048 3.72m46.143-1.792c1.541.028 4.016.028 5.5 0 1.483-.028.222-.05-2.803-.05s-4.239.023-2.697.05m-105.678.333c1.536.028 4.048.028 5.584 0 1.535-.027.279-.05-2.792-.05-3.071 0-4.327.023-2.792.05m8.866 8.542c0 2.705.023 3.811.051 2.459a143.92 143.92 0 000-4.917c-.028-1.352-.051-.246-.051 2.458m-12 .084c0 2.658.023 3.722.051 2.364.028-1.357.028-3.532 0-4.833-.029-1.301-.052-.19-.051 2.469m116.493-2.334c0 1.375.026 1.916.057 1.201.031-.715.031-1.84 0-2.5-.032-.66-.058-.076-.057 1.299M91.331 52.091a8.768 8.768 0 00-.264.833c-.057.225-.162.409-.234.409-.071 0-.181.207-.244.459s-.333 1.007-.601 1.679c-.543 1.36-.544 1.362-.348 1.362.077 0 .277-.45.443-1 .167-.55.371-1 .453-1 .083 0 .099-.083.036-.185s-.041-.233.049-.292c.089-.058.335-.631.546-1.273.21-.641.465-1.221.566-1.289.126-.084.117-.123-.029-.125-.117-.001-.285.188-.373.422m-2.335 6.003c-.09.235-.163.498-.163.584 0 .085-.062.155-.139.155-.076 0-.138.113-.138.25 0 .499.22.232.48-.583.276-.862.246-1.16-.04-.406m-.788 2.026c-.263.094-.275.713-.014.713.107 0 .146-.049.085-.109-.06-.061-.024-.212.08-.338.216-.261.152-.374-.151-.266m-.7 1.818c-.386.873-.392.895-.206.895.074 0 .254-.375.401-.833.333-1.043.25-1.069-.195-.062m-.73 1.673c-.061.061-.107.267-.101.458.01.32.024.316.17-.052.164-.408.13-.605-.069-.406m.68 4.68c1.398.028 3.686.028 5.084 0 1.398-.028.254-.05-2.542-.05s-3.94.022-2.542.05" fill="#e5a459"/>
    </g>
</svg>
